<svg xmlns:xlink="http://www.w3.org/1999/xlink" height="40.05" width="76.4" xmlns="http://www.w3.org/2000/svg"><g transform="translate(53.65 32.95)"><use height="36.8" transform="translate(-12.3 -30.05)" width="33.3" xlink:href="#shape0"/><use height="16.6" transform="translate(-17.5 -32.95)" width="16.3" xlink:href="#shape1"/></g><defs><path d="M1.05-33.65q3.15 3.1.6 6.8L.5-25.5q-.7.5-2 .65l-2.7.7-2.3-.1q-2.1.35-4.05-.7-2.65-1.7-2.95-4.9l1.45-1.25q.1-2.6 1.85-4.4 1.05-1.25 2.45-1.65l.4-3.4q6.45 4.95 8.4 6.9" fill-rule="evenodd" transform="translate(13.5 40.55)" id="shape1"/><g id="shape0"><path d="M27.7 26.25q1.25-.65 2.15-2.5.95-1.8.95-3.5 0-3.5-2.6-7.7-2.65-4.25-2.65-5.85l.1-2.15q.3-1.15 1.55-2.05" fill="none" stroke="#000" stroke-linecap="round" stroke-linejoin="round" stroke-width="5"/><path d="M12.5-5.9q0 3.3-2.25 5.65Q8 2.1 4.8 2.1T-.65-.25Q-2.9-2.6-2.9-5.9q0-3.3 2.25-5.65Q1.6-13.9 4.8-13.9t5.45 2.35Q12.5-9.2 12.5-5.9" fill-rule="evenodd" transform="translate(12.3 30.05)"/><path d="M24.8 24.15q0 3.3-2.25 5.65-2.25 2.35-5.45 2.35t-5.45-2.35Q9.4 27.45 9.4 24.15q0-3.3 2.25-5.65 2.25-2.35 5.45-2.35t5.45 2.35q2.25 2.35 2.25 5.65z" fill="none" stroke="#000" stroke-linecap="round" stroke-linejoin="round" stroke-width="5"/><path d="M-4.3-13.5q-2.15-.95-3.6-2.9-1.45-1.95-1.4-3.8-.1-1.8 1.4-2.4 1.55-.6 3.65.35 2.05.95 3.55 2.9Q.75-17.4.75-15.55.7-13.8-.85-13.2q-1.45.6-3.45-.3" fill-rule="evenodd" transform="translate(12.3 30.05)"/><path d="M8 16.55q-2.15-.95-3.6-2.9Q2.95 11.7 3 9.85q-.1-1.8 1.4-2.4 1.55-.6 3.65.35 2.05.95 3.55 2.9 1.45 1.95 1.45 3.8-.05 1.75-1.6 2.35-1.45.6-3.45-.3zM11.65 34.3l4.6-.8 4.7-.2" fill="none" stroke="#000" stroke-linecap="round" stroke-linejoin="round" stroke-width="5"/><path d="M12.3 12.7h1.1q.55.95 1.7 1.3 1.2.35 1.85 1.25.8 1.05 1.1 2.25l.3 2.5M2.5 11.4q1.3.15 2.05 1.85.7 1.6 1.75 1.55l.7 5.3q.7 4.2.7 6.25 0 3.2-.55 4.75-.8 2.25-2.85 1.95" fill="none" stroke="#000" stroke-linecap="round" stroke-linejoin="round" stroke-width="5"/></g></defs></svg>