<svg xmlns:xlink="http://www.w3.org/1999/xlink" height="40.05" width="76.4" xmlns="http://www.w3.org/2000/svg"><g transform="translate(53.65 32.95)"><use height="38.65" transform="translate(-11 -32.15)" width="33.75" xlink:href="#shape0"/><use height="16.6" transform="translate(-20.9 -23.95)" width="16.3" xlink:href="#shape1"/></g><defs><path d="M1.05-33.65q3.15 3.1.6 6.8L.5-25.5q-.7.5-2 .65l-2.7.7-2.3-.1q-2.1.35-4.05-.7-2.65-1.7-2.95-4.9l1.45-1.25q.1-2.6 1.85-4.4 1.05-1.25 2.45-1.65l.4-3.4q6.45 4.95 8.4 6.9" fill-rule="evenodd" transform="translate(13.5 40.55)" id="shape1"/><g id="shape0"><path d="M26.65 19.5q2.35 0 3.1-1.05.5-.75.5-2.85 0-2.25-1.1-3.75-1.1-1.55-1.1-2.65 0-1.25 1.6-4.05l1.6-2.65" fill="none" stroke="#000" stroke-linecap="round" stroke-linejoin="round" stroke-width="5"/><path d="M16-11q0 2.75-2.5 4.7-2.5 2-6.05 2t-6-2q-2.5-1.95-2.5-4.7 0-2.8 2.5-4.75 2.45-1.95 6-1.95t6.05 1.95Q16-13.8 16-11" fill-rule="evenodd" transform="translate(11 32.15)"/><path d="M27 21.15q0 2.75-2.5 4.7-2.5 2-6.05 2t-6-2q-2.5-1.95-2.5-4.7 0-2.8 2.5-4.75 2.45-1.95 6-1.95t6.05 1.95q2.5 1.95 2.5 4.75z" fill="none" stroke="#000" stroke-linecap="round" stroke-linejoin="round" stroke-width="5"/><path d="M-3.5-8.3q-2.15-.95-3.6-2.9-1.45-1.95-1.4-3.8-.1-1.8 1.4-2.4 1.55-.6 3.65.35 2.05.95 3.55 2.9 1.45 1.95 1.45 3.8Q1.5-8.6-.05-8q-1.45.6-3.45-.3" fill-rule="evenodd" transform="translate(11 32.15)"/><path d="M7.5 23.85q-2.15-.95-3.6-2.9-1.45-1.95-1.4-3.8-.1-1.8 1.4-2.4 1.55-.6 3.65.35 2.05.95 3.55 2.9 1.45 1.95 1.45 3.8-.05 1.75-1.6 2.35-1.45.6-3.45-.3zM11 14.8h1.1q.55.95 1.7 1.3 1.2.35 1.85 1.25.8 1.05 1.1 2.25l.3 2.5M14.8 36.15H19q.8-2.3 2.45-4.1 1.85-2 4-2.55l-3.8-4.6" fill="none" stroke="#000" stroke-linecap="round" stroke-linejoin="round" stroke-width="5"/><path d="M3.2 35.75q1.75 0 4.9-3.45 2.9-3.15 2.9-4 0-.95-3.55-5L3.6 19.1" fill="none" stroke="#000" stroke-linecap="round" stroke-linejoin="round" stroke-width="5"/></g></defs></svg>