<svg xmlns:xlink="http://www.w3.org/1999/xlink" height="40.05" width="76.4" xmlns="http://www.w3.org/2000/svg"><g transform="translate(53.65 32.95)"><use height="39.3" transform="translate(-37.75 -32.6)" width="54.1" xlink:href="#shape0"/><use height="16.6" transform="translate(-39.75 -32.05)" width="16.3" xlink:href="#shape1"/></g><defs><path d="M1.05-33.65q3.15 3.1.6 6.8L.5-25.5q-.7.5-2 .65l-2.7.7-2.3-.1q-2.1.35-4.05-.7-2.65-1.7-2.95-4.9l1.45-1.25q.1-2.6 1.85-4.4 1.05-1.25 2.45-1.65l.4-3.4q6.45 4.95 8.4 6.9" fill-rule="evenodd" transform="translate(13.5 40.55)" id="shape1"/><g id="shape0"><path d="M40.15 14.95q2.8.35 2.95-3.05l.3-5.15q2.95-5.3 8.2-4" fill="none" stroke="#000" stroke-linecap="round" stroke-linejoin="round" stroke-width="5"/><path d="M.15-15.95q0 2.75-2.5 4.7-2.5 2-6.05 2t-6-2q-2.5-1.95-2.5-4.7 0-2.8 2.5-4.75 2.45-1.95 6-1.95t6.05 1.95q2.5 1.95 2.5 4.75" fill-rule="evenodd" transform="translate(37.75 32.6)"/><path d="M37.9 16.65q0 2.75-2.5 4.7-2.5 2-6.05 2t-6-2q-2.5-1.95-2.5-4.7 0-2.8 2.5-4.75 2.45-1.95 6-1.95t6.05 1.95q2.5 1.95 2.5 4.75z" fill="none" stroke="#000" stroke-linecap="round" stroke-linejoin="round" stroke-width="5"/><path d="M-16.85-14.45l-5.5-.4q-2.55-.9-3.5-2.55-1.05-1.6.25-3.1 1.35-1.55 4.15-2l5.45.4q2.6.9 3.55 2.6.9 1.6-.5 3.15-1.25 1.45-3.9 1.9" fill-rule="evenodd" transform="translate(37.75 32.6)"/><path d="M20.9 18.15l-5.5-.4q-2.55-.9-3.5-2.55-1.05-1.6.25-3.1 1.35-1.55 4.15-2l5.45.4q2.6.9 3.55 2.6.9 1.6-.5 3.15-1.25 1.45-3.9 1.9zM38.75 18.2q-.3 2.35-1.6 5.25L34.7 28.2h1l5.65-1.6h1.8v5q-.6 1.7-.8 5.2h-1.8M31.7 21q.4 2.8.4 5 .7-.25 1.05.25.25.45.2 1.15l.55.2h-.6l.05-.2-1.2-.85q-.85-.85-.85-1.65l.2-.7" fill="none" stroke="#000" stroke-linecap="round" stroke-linejoin="round" stroke-width="5"/><path d="M14.95 16.15l.65 1.25q.2.7.55.75l1.55.45q.45.25.45.85 0 1.25-3.4 1.25l-3.85-.15q-1.95.6-2.7 1.45-.95 1.05-.7 3.15M2.5 27.15q.6-3.35 3.75-6.35 3.1-2.95 6.65-3.65" fill="none" stroke="#000" stroke-linecap="round" stroke-linejoin="round" stroke-width="5"/></g></defs></svg>