<svg xmlns:xlink="http://www.w3.org/1999/xlink" height="40.05" width="76.4" xmlns="http://www.w3.org/2000/svg"><g transform="translate(53.65 32.95)"><use height="37.85" transform="translate(-42.6 -31.75)" width="46.9" xlink:href="#shape0"/><use height="16.6" transform="translate(-48.25 -23.45)" width="16.3" xlink:href="#shape1"/></g><defs><path d="M1.05-33.65q3.15 3.1.6 6.8L.5-25.5q-.7.5-2 .65l-2.7.7-2.3-.1q-2.1.35-4.05-.7-2.65-1.7-2.95-4.9l1.45-1.25q.1-2.6 1.85-4.4 1.05-1.25 2.45-1.65l.4-3.4q6.45 4.95 8.4 6.9" fill-rule="evenodd" transform="translate(13.5 40.55)" id="shape1"/><g id="shape0"><path d="M28.4 13.5q3.05.35 5-1.4 1.2-1 2.9-3.95t2.9-4.05q2.05-1.8 5.2-1.6" fill="none" stroke="#000" stroke-linecap="round" stroke-linejoin="round" stroke-width="5"/><path d="M-10.6-17.7q.7 2.5-1.2 4.95-1.95 2.4-5.4 3.35l-6.25-.2q-2.9-1.15-3.6-3.65-.65-2.55 1.25-4.95 1.95-2.45 5.35-3.35l6.3.2q2.9 1.1 3.55 3.65" fill-rule="evenodd" transform="translate(42.6 31.75)"/><path d="M32 14.05q.7 2.5-1.2 4.95-1.95 2.4-5.4 3.35l-6.25-.2q-2.9-1.15-3.6-3.65-.65-2.55 1.25-4.95 1.95-2.45 5.35-3.35l6.3.2q2.9 1.1 3.55 3.65z" fill="none" stroke="#000" stroke-linecap="round" stroke-linejoin="round" stroke-width="5"/><path d="M-32.8-10.55q-2.55-.9-3.5-2.55-1.05-1.6.25-3.1 1.35-1.55 4.15-2l5.45.4q2.6.9 3.55 2.6.9 1.6-.5 3.15-1.25 1.45-3.9 1.9-2.85.5-5.5-.4" fill-rule="evenodd" transform="translate(42.6 31.75)"/><path d="M9.8 21.2q-2.55-.9-3.5-2.55-1.05-1.6.25-3.1 1.35-1.55 4.15-2l5.45.4q2.6.9 3.55 2.6.9 1.6-.5 3.15-1.25 1.45-3.9 1.9-2.85.5-5.5-.4zM35.5 22.9q-2.1 1.05-4.65 3.5-2.3 2.2-4 4.55M27.75 23.4l1.4-.7.2-.2-1.05.4-.25.1-.3.4q-.95 1.15-2.25 1.25l-3.3-.05h.2l2.65-.75h-1.1l.2-.75q.9 0 4.2-1h7.15m-10.45 1.75l.95-.25 2.05-.6m-.3.4l-1.1.45h-1.6" fill="none" stroke="#000" stroke-linecap="round" stroke-linejoin="round" stroke-width="5"/><path d="M2.7 35.35l6.8-8.2q4.1-5.1 3.45-8" fill="none" stroke="#000" stroke-linecap="round" stroke-linejoin="round" stroke-width="5"/><path d="M9.1 22.55L7.3 30.6q-1.6 4.85-4.8 4.35" fill="none" stroke="#000" stroke-linecap="round" stroke-linejoin="round" stroke-width="5"/></g></defs></svg>