<svg xmlns:xlink="http://www.w3.org/1999/xlink" height="40.05" width="76.4" xmlns="http://www.w3.org/2000/svg"><g transform="translate(53.65 32.95)"><use height="32.65" transform="translate(-44.65 -25.55)" width="45.75" xlink:href="#shape0"/><use height="16.6" transform="translate(-53.65 -26.6)" width="16.3" xlink:href="#shape1"/></g><defs><path d="M1.05-33.65q3.15 3.1.6 6.8L.5-25.5q-.7.5-2 .65l-2.7.7-2.3-.1q-2.1.35-4.05-.7-2.65-1.7-2.95-4.9l1.45-1.25q.1-2.6 1.85-4.4 1.05-1.25 2.45-1.65l.4-3.4q6.45 4.95 8.4 6.9" fill-rule="evenodd" transform="translate(13.5 40.55)" id="shape1"/><g id="shape0"><path d="M26.25 8.75q2.9.15 8.3-3.2 5.3-3.3 8.7-3" fill="none" stroke="#000" stroke-linecap="round" stroke-linejoin="round" stroke-width="5"/><path d="M-19.9-11.55q-1.95 2.4-5.4 3.35l-6.25-.2q-2.9-1.15-3.6-3.65-.65-2.55 1.25-4.95 1.95-2.45 5.35-3.35l6.3.2q2.9 1.1 3.55 3.65.7 2.5-1.2 4.95" fill-rule="evenodd" transform="translate(44.65 25.55)"/><path d="M24.75 14q-1.95 2.4-5.4 3.35l-6.25-.2Q10.2 16 9.5 13.5q-.65-2.55 1.25-4.95Q12.7 6.1 16.1 5.2l6.3.2q2.9 1.1 3.55 3.65.7 2.5-1.2 4.95z" fill="none" stroke="#000" stroke-linecap="round" stroke-linejoin="round" stroke-width="5"/><path d="M-38.2-11.4q-2.55-.9-3.5-2.55-1.05-1.6.25-3.1 1.35-1.55 4.15-2l5.45.4q2.6.9 3.55 2.6.9 1.6-.5 3.15-1.25 1.45-3.9 1.9-2.85.5-5.5-.4" fill-rule="evenodd" transform="translate(44.65 25.55)"/><path d="M6.45 14.15q-2.55-.9-3.5-2.55Q1.9 10 3.2 8.5q1.35-1.55 4.15-2l5.45.4q2.6.9 3.55 2.6.9 1.6-.5 3.15-1.25 1.45-3.9 1.9-2.85.5-5.5-.4zM21.65 13.95q-2.3 1-3.65 5.2h4.25v4L20 27.2q-1.25 2.65-3.4 2.95" fill="none" stroke="#000" stroke-linecap="round" stroke-linejoin="round" stroke-width="5"/><path d="M3.2 29.75q.2-.2 1.3-.45 1-.25 1.3-.75l1-2.6 1.9-2.55q1.1-1.5 1.1-1.95l-.6-.7-.6-.8q-.1-1.45-.4-2l-.8-2.15-.6-2.05v-1.2q2.9.05 3.2 6.4.5-.25.8-1.2" fill="none" stroke="#000" stroke-linecap="round" stroke-linejoin="round" stroke-width="5"/></g></defs></svg>