<svg xmlns:xlink="http://www.w3.org/1999/xlink" height="68.95" width="46.9" xmlns="http://www.w3.org/2000/svg"><g transform="translate(28.9 59.25)"><use height="33.35" transform="translate(-11.6 -23.65)" width="27.35" xlink:href="#shape0"/><use height="19.75" transform="translate(-13.95 -35.9)" width="18.45" xlink:href="#shape1"/></g><defs><g id="shape0"><path d="M21.75 26.25q1.25-.65 2.15-2.5.95-1.8.95-3.5 0-3.5-2.6-7.7Q19.6 8.3 19.6 6.7l.1-2.15Q20 3.4 21.25 2.5" fill="none" stroke="#000" stroke-linecap="round" stroke-linejoin="round" stroke-width="5"/><path d="M9.6-.8q0 3.3-2.25 5.65Q5.1 7.2 1.9 7.2t-5.45-2.35Q-5.8 2.5-5.8-.8q0-3.3 2.25-5.65Q-1.3-8.8 1.9-8.8t5.45 2.35Q9.6-4.1 9.6-.8" fill-rule="evenodd" transform="translate(11.6 23.65)"/><path d="M21.2 22.85q0 3.3-2.25 5.65-2.25 2.35-5.45 2.35T8.05 28.5Q5.8 26.15 5.8 22.85q0-3.3 2.25-5.65 2.25-2.35 5.45-2.35t5.45 2.35q2.25 2.35 2.25 5.65z" fill="none" stroke="#000" stroke-linecap="round" stroke-linejoin="round" stroke-width="5"/><path d="M3.4-13.3q0 2.65-1.8 4.5-1.85 1.9-4.45 1.9-2.55 0-4.4-1.9-1.85-1.85-1.85-4.5t1.85-4.55q1.85-1.85 4.4-1.85 2.6 0 4.45 1.85 1.8 1.9 1.8 4.55" fill-rule="evenodd" transform="translate(11.6 23.65)"/><path d="M15 10.35q0 2.65-1.8 4.5-1.85 1.9-4.45 1.9-2.55 0-4.4-1.9Q2.5 13 2.5 10.35T4.35 5.8q1.85-1.85 4.4-1.85 2.6 0 4.45 1.85Q15 7.7 15 10.35zM4.35 26.4q.25 1.7 1.5 1.65 1.45-.1 1.75.6.55 1.1 1.3 1.5l2.2.25" fill="none" stroke="#000" stroke-linecap="round" stroke-linejoin="round" stroke-width="5"/><path d="M4.35 8.65L4.6 19.3l-.1 3.6q-.35 2-1.65 1.75v1.25h.25M14.6 11.4q1.05-.15 1.45 1.65.45 1.85 1.8 1.85-.1.9.3 2.6l.45 2.15" fill="none" stroke="#000" stroke-linecap="round" stroke-linejoin="round" stroke-width="5"/></g><g id="shape1" fill-rule="evenodd"><path d="M7.25-27.25Q6.95-24 4.1-22.8 1.4-20.15-3-20.5q-2.55-.85-4.95-2.15-2.95-1.65-3.2-5.2-.2-3.4 2-6.05 2.2-2.7 5.6-3.15 3.4-.4 6.2 1.5 2.8 1.95 4.05 5.1.7 1.5.55 3.2" transform="translate(11.15 40.2)"/><path d="M2.35-40.15q1.7-.45 3.5 6.45.55 2.15.5 2.85l-1.25.35Q2.45-31.6.95-32.6q-2.05-1.35-2.85-2.95l.1-.05.1-.2.75.2.35.15L.45-37.8q1.1-2.15 1.9-2.35M-10.7-35.5l.45-4.45q1.3.7 2.4 1.6 1.8 1.4 2.15 2.55.35 1.45-1.15 3-1.25 1.4-2.95 2-.95-1.75-.9-4.7" transform="translate(11.15 40.2)"/></g></defs></svg>