<svg xmlns:xlink="http://www.w3.org/1999/xlink" height="68.95" width="46.9" xmlns="http://www.w3.org/2000/svg"><g transform="translate(28.9 59.25)"><use height="45.2" transform="translate(-14.25 -35.95)" width="30" xlink:href="#shape0"/><use height="19.75" transform="translate(-18.95 -36.05)" width="18.45" xlink:href="#shape1"/></g><defs><g id="shape0"><path d="M24.4 26.25q1.25-.65 2.15-2.5.95-1.8.95-3.5 0-3.5-2.6-7.7-2.65-4.25-2.65-5.85l.1-2.15q.3-1.15 1.55-2.05" fill="none" stroke="#000" stroke-linecap="round" stroke-linejoin="round" stroke-width="5"/><path d="M11.15-8.3q0 3.3-2.25 5.65Q6.65-.3 3.45-.3T-2-2.65Q-4.25-5-4.25-8.3q0-3.3 2.25-5.65Q.25-16.3 3.45-16.3t5.45 2.35q2.25 2.35 2.25 5.65" fill-rule="evenodd" transform="translate(14.25 35.95)"/><path d="M25.4 27.65q0 3.3-2.25 5.65-2.25 2.35-5.45 2.35t-5.45-2.35Q10 30.95 10 27.65q0-3.3 2.25-5.65 2.25-2.35 5.45-2.35T23.15 22q2.25 2.35 2.25 5.65z" fill="none" stroke="#000" stroke-linecap="round" stroke-linejoin="round" stroke-width="5"/><path d="M.75-18.9q0 2.65-1.8 4.5-1.85 1.9-4.45 1.9-2.55 0-4.4-1.9-1.85-1.85-1.85-4.5t1.85-4.55q1.85-1.85 4.4-1.85 2.6 0 4.45 1.85 1.8 1.9 1.8 4.55" fill-rule="evenodd" transform="translate(14.25 35.95)"/><path d="M15 17.05q0 2.65-1.8 4.5-1.85 1.9-4.45 1.9-2.55 0-4.4-1.9-1.85-1.85-1.85-4.5t1.85-4.55q1.85-1.85 4.4-1.85 2.6 0 4.45 1.85 1.8 1.9 1.8 4.55zM11.75 42.7q2.3-.7 2.35-4.9.1-4.7 1.15-5.6M20.5 41.2q.7-.1 3.05-3.35 2.45-3.3 2.45-4.5 0-.55-1.05-1.7L23.5 30.2" fill="none" stroke="#000" stroke-linecap="round" stroke-linejoin="round" stroke-width="5"/><path d="M3.2 19.05l3 10.2.85 3.55q.15 2-1.15 2.05l.35 1.2.25-.05M17.25 23.7q1.05-.15 1.45 1.65.45 1.85 1.8 1.85-.1.9.3 2.6l.45 2.15M14.6 12.95H13l1.75 1.55q.85.9 2 1.2.7.2 1.1 1.25l.3 1h.6q-.65-.75-2-3.4-.8-1.6-2.15-1.6m1.15 3.5q1.1.35 1.5 1.75.2-.2.9-.25l.35 1" fill="none" stroke="#000" stroke-linecap="round" stroke-linejoin="round" stroke-width="5"/></g><g id="shape1" fill-rule="evenodd"><path d="M7.25-27.25Q6.95-24 4.1-22.8 1.4-20.15-3-20.5q-2.55-.85-4.95-2.15-2.95-1.65-3.2-5.2-.2-3.4 2-6.05 2.2-2.7 5.6-3.15 3.4-.4 6.2 1.5 2.8 1.95 4.05 5.1.7 1.5.55 3.2" transform="translate(11.15 40.2)"/><path d="M2.35-40.15q1.7-.45 3.5 6.45.55 2.15.5 2.85l-1.25.35Q2.45-31.6.95-32.6q-2.05-1.35-2.85-2.95l.1-.05.1-.2.75.2.35.15L.45-37.8q1.1-2.15 1.9-2.35M-10.7-35.5l.45-4.45q1.3.7 2.4 1.6 1.8 1.4 2.15 2.55.35 1.45-1.15 3-1.25 1.4-2.95 2-.95-1.75-.9-4.7" transform="translate(11.15 40.2)"/></g></defs></svg>