<svg xmlns:xlink="http://www.w3.org/1999/xlink" height="68.95" width="46.9" xmlns="http://www.w3.org/2000/svg"><g transform="translate(28.9 59.25)"><use height="48.8" transform="translate(-22.5 -40.8)" width="40.5" xlink:href="#shape0"/><use height="19.75" transform="translate(-23.7 -53.1)" width="18.45" xlink:href="#shape1"/></g><defs><g id="shape0"><path d="M26.75 20.3l8.05-1.35q3.2-1.35 3.2-6.3 0-1.3-.5-3.05L37 7.4q0-.85.5-1.85" fill="none" stroke="#000" stroke-linecap="round" stroke-linejoin="round" stroke-width="5"/><path d="M6.25-21.3q0 3.3-2.25 5.65-2.25 2.35-5.45 2.35t-5.45-2.35Q-9.15-18-9.15-21.3q0-3.3 2.25-5.65 2.25-2.35 5.45-2.35T4-26.95q2.25 2.35 2.25 5.65" fill-rule="evenodd" transform="translate(22.5 40.8)"/><path d="M28.75 19.5q0 3.3-2.25 5.65-2.25 2.35-5.45 2.35t-5.45-2.35q-2.25-2.35-2.25-5.65 0-3.3 2.25-5.65 2.25-2.35 5.45-2.35t5.45 2.35q2.25 2.35 2.25 5.65z" fill="none" stroke="#000" stroke-linecap="round" stroke-linejoin="round" stroke-width="5"/><path d="M-1.25-31.9q0 2.65-1.8 4.5-1.85 1.9-4.45 1.9-2.55 0-4.4-1.9-1.85-1.85-1.85-4.5t1.85-4.55q1.85-1.85 4.4-1.85 2.6 0 4.45 1.85 1.8 1.9 1.8 4.55" fill-rule="evenodd" transform="translate(22.5 40.8)"/><path d="M21.25 8.9q0 2.65-1.8 4.5-1.85 1.9-4.45 1.9-2.55 0-4.4-1.9-1.85-1.85-1.85-4.5t1.85-4.55Q12.45 2.5 15 2.5q2.6 0 4.45 1.85 1.8 1.9 1.8 4.55zM19.3 46.3q.75-.85.7-5.1-.1-4.1 1.3-5.15-2.05-2.8-1.75-11.25H17.8q0 .2-.55.6-.6.4-.95.4v2.25l1.1 3.1q.2.95.85 1.75.65.8.8 1.9h.5M26.5 44.05h.75q0-4.25.75-5.75l1.25-2.75.75-1.9q0-.6-2.5-2.55-2.5-2-2.5-3.3l.15-1 .1-1.25 2.5-.25v4M2.5 10.05l.4 2.4q.55 1.35 2.1 1.1v2.5h2.5l.5-1-.25.25v-.5q0-.8-.75-4.65 0-.55.5-.75l1-.35-1-.25.15-.7q.2-.4.6-.55" fill="none" stroke="#000" stroke-linecap="round" stroke-linejoin="round" stroke-width="5"/></g><g id="shape1" fill-rule="evenodd"><path d="M7.25-27.25Q6.95-24 4.1-22.8 1.4-20.15-3-20.5q-2.55-.85-4.95-2.15-2.95-1.65-3.2-5.2-.2-3.4 2-6.05 2.2-2.7 5.6-3.15 3.4-.4 6.2 1.5 2.8 1.95 4.05 5.1.7 1.5.55 3.2" transform="translate(11.15 40.2)"/><path d="M2.35-40.15q1.7-.45 3.5 6.45.55 2.15.5 2.85l-1.25.35Q2.45-31.6.95-32.6q-2.05-1.35-2.85-2.95l.1-.05.1-.2.75.2.35.15L.45-37.8q1.1-2.15 1.9-2.35M-10.7-35.5l.45-4.45q1.3.7 2.4 1.6 1.8 1.4 2.15 2.55.35 1.45-1.15 3-1.25 1.4-2.95 2-.95-1.75-.9-4.7" transform="translate(11.15 40.2)"/></g></defs></svg>