<svg xmlns:xlink="http://www.w3.org/1999/xlink" height="68.95" width="46.9" xmlns="http://www.w3.org/2000/svg"><g transform="translate(28.9 59.25)"><use height="40.8" transform="translate(-22.75 -49.3)" width="40.75" xlink:href="#shape0"/><use height="19.75" transform="translate(-28.4 -57)" width="18.45" xlink:href="#shape1"/></g><defs><g id="shape0"><path d="M25.25 15.05l1.65-.75q1.2-.75 1.1-1.75h2.5q-.35 2.25 1.5 2.25l.25 1.5h4.5l.85-1 .65-.75" fill="none" stroke="#000" stroke-linecap="round" stroke-linejoin="round" stroke-width="5"/><path d="M3.7-32.55q0 3.3-2.25 5.65Q-.8-24.55-4-24.55t-5.45-2.35q-2.25-2.35-2.25-5.65 0-3.3 2.25-5.65Q-7.2-40.55-4-40.55t5.45 2.35q2.25 2.35 2.25 5.65" fill-rule="evenodd" transform="translate(22.75 49.3)"/><path d="M26.45 16.75q0 3.3-2.25 5.65-2.25 2.35-5.45 2.35T13.3 22.4q-2.25-2.35-2.25-5.65 0-3.3 2.25-5.65 2.25-2.35 5.45-2.35t5.45 2.35q2.25 2.35 2.25 5.65z" fill="none" stroke="#000" stroke-linecap="round" stroke-linejoin="round" stroke-width="5"/><path d="M-5.5-40.4q0 2.65-1.8 4.5-1.85 1.9-4.45 1.9-2.55 0-4.4-1.9Q-18-37.75-18-40.4t1.85-4.55q1.85-1.85 4.4-1.85 2.6 0 4.45 1.85 1.8 1.9 1.8 4.55" fill-rule="evenodd" transform="translate(22.75 49.3)"/><path d="M17.25 8.9q0 2.65-1.8 4.5-1.85 1.9-4.45 1.9-2.55 0-4.4-1.9-1.85-1.85-1.85-4.5T6.6 4.35Q8.45 2.5 11 2.5q2.6 0 4.45 1.85 1.8 1.9 1.8 4.55zM13.25 22.8q0 2.25 1.75 7.5h2.5q.5-1 .5-2h.25q-.15 1.3.65 5.15.75 3.75.6 4.85M27.25 36.05q0-1 .5-1.5v-9l-2.25.25-.25-6.25" fill="none" stroke="#000" stroke-linecap="round" stroke-linejoin="round" stroke-width="5"/><path d="M3.25 10.3l.25 8.25v.5l.4-.5q1.35-1.7 1.35-5.25.5.5 1.75.5v6.5h.5q.4-1.1 1.85-2.75 1.45-1.6 1.9-3m-7.75 4.5v2.5h-.75l-.1-.15-.15-.5q0-.6 1-1.85" fill="none" stroke="#000" stroke-linecap="round" stroke-linejoin="round" stroke-width="5"/></g><g id="shape1" fill-rule="evenodd"><path d="M7.25-27.25Q6.95-24 4.1-22.8 1.4-20.15-3-20.5q-2.55-.85-4.95-2.15-2.95-1.65-3.2-5.2-.2-3.4 2-6.05 2.2-2.7 5.6-3.15 3.4-.4 6.2 1.5 2.8 1.95 4.05 5.1.7 1.5.55 3.2" transform="translate(11.15 40.2)"/><path d="M2.35-40.15q1.7-.45 3.5 6.45.55 2.15.5 2.85l-1.25.35Q2.45-31.6.95-32.6q-2.05-1.35-2.85-2.95l.1-.05.1-.2.75.2.35.15L.45-37.8q1.1-2.15 1.9-2.35M-10.7-35.5l.45-4.45q1.3.7 2.4 1.6 1.8 1.4 2.15 2.55.35 1.45-1.15 3-1.25 1.4-2.95 2-.95-1.75-.9-4.7" transform="translate(11.15 40.2)"/></g></defs></svg>