<svg xmlns:xlink="http://www.w3.org/1999/xlink" height="68.95" width="46.9" xmlns="http://www.w3.org/2000/svg"><g transform="translate(28.9 59.25)"><use height="32.85" transform="translate(-25.25 -54.6)" width="42" xlink:href="#shape0"/><use height="19.75" transform="translate(-28.9 -59.25)" width="18.45" xlink:href="#shape1"/></g><defs><g id="shape0"><path d="M23.75 13.85q2.8-.4 9.15 0 5.25-.05 6.6-2.5" fill="none" stroke="#000" stroke-linecap="round" stroke-linejoin="round" stroke-width="5"/><path d="M-.6-39.55q0 3.3-2.25 5.65-2.25 2.35-5.45 2.35t-5.45-2.35Q-16-36.25-16-39.55q0-3.3 2.25-5.65 2.25-2.35 5.45-2.35t5.45 2.35Q-.6-42.85-.6-39.55" fill-rule="evenodd" transform="translate(25.25 54.6)"/><path d="M24.65 15.05q0 3.3-2.25 5.65-2.25 2.35-5.45 2.35T11.5 20.7q-2.25-2.35-2.25-5.65 0-3.3 2.25-5.65 2.25-2.35 5.45-2.35T22.4 9.4q2.25 2.35 2.25 5.65z" fill="none" stroke="#000" stroke-linecap="round" stroke-linejoin="round" stroke-width="5"/><path d="M-9-45.7q0 2.65-1.8 4.5-1.85 1.9-4.45 1.9-2.55 0-4.4-1.9-1.85-1.85-1.85-4.5t1.85-4.55q1.85-1.85 4.4-1.85 2.6 0 4.45 1.85Q-9-48.35-9-45.7" fill-rule="evenodd" transform="translate(25.25 54.6)"/><path d="M16.25 8.9q0 2.65-1.8 4.5-1.85 1.9-4.45 1.9-2.55 0-4.4-1.9-1.85-1.85-1.85-4.5T5.6 4.35Q7.45 2.5 10 2.5q2.6 0 4.45 1.85 1.8 1.9 1.8 4.55zM15 17.35q-.7.25-1.6 1.7l-1.15 1.8v2l6.25.25v1.25l-3.45 2.3q-2.1 1.55-2.05 3.7M24 22.6q-.55 1.2-2.4 3.3-1.7 1.9-2.1 2.95h-2M4 13.85h.25l.25 5.75q.45 1.85.4 3.65-.05 3.5-2.4 3.85M8.75 17.6l.05 4.55q0 2.7-.55 3.95.25 0 .75-.5" fill="none" stroke="#000" stroke-linecap="round" stroke-linejoin="round" stroke-width="5"/></g><g id="shape1" fill-rule="evenodd"><path d="M7.25-27.25Q6.95-24 4.1-22.8 1.4-20.15-3-20.5q-2.55-.85-4.95-2.15-2.95-1.65-3.2-5.2-.2-3.4 2-6.05 2.2-2.7 5.6-3.15 3.4-.4 6.2 1.5 2.8 1.95 4.05 5.1.7 1.5.55 3.2" transform="translate(11.15 40.2)"/><path d="M2.35-40.15q1.7-.45 3.5 6.45.55 2.15.5 2.85l-1.25.35Q2.45-31.6.95-32.6q-2.05-1.35-2.85-2.95l.1-.05.1-.2.75.2.35.15L.45-37.8q1.1-2.15 1.9-2.35M-10.7-35.5l.45-4.45q1.3.7 2.4 1.6 1.8 1.4 2.15 2.55.35 1.45-1.15 3-1.25 1.4-2.95 2-.95-1.75-.9-4.7" transform="translate(11.15 40.2)"/></g></defs></svg>