<svg xmlns:xlink="http://www.w3.org/1999/xlink" height="70.15" width="49.75" xmlns="http://www.w3.org/2000/svg"><g transform="translate(32.75 36.25)"><use height="41.55" transform="translate(-12.35 -33.05)" width="29.35" xlink:href="#shape0"/><use height="19.75" transform="translate(-13.95 -35.9)" width="18.45" xlink:href="#shape1"/></g><defs><g id="shape0"><path d="M23.75 26.25q1.25-.65 2.15-2.5.95-1.8.95-3.5 0-3.5-2.6-7.7Q21.6 8.3 21.6 6.7l.1-2.15Q22 3.4 23.25 2.5" fill="none" stroke="#000" stroke-linecap="round" stroke-linejoin="round" stroke-width="5"/><path d="M10.3-5.9q0 3.3-2.25 5.65Q5.8 2.1 2.6 2.1T-2.85-.25Q-5.1-2.6-5.1-5.9q0-3.3 2.25-5.65Q-.6-13.9 2.6-13.9t5.45 2.35Q10.3-9.2 10.3-5.9" fill-rule="evenodd" transform="translate(12.35 33.05)"/><path d="M22.65 27.15q0 3.3-2.25 5.65-2.25 2.35-5.45 2.35T9.5 32.8q-2.25-2.35-2.25-5.65 0-3.3 2.25-5.65 2.25-2.35 5.45-2.35t5.45 2.35q2.25 2.35 2.25 5.65z" fill="none" stroke="#000" stroke-linecap="round" stroke-linejoin="round" stroke-width="5"/><path d="M3.4-13.3q0 2.65-1.8 4.5-1.85 1.9-4.45 1.9-2.55 0-4.4-1.9-1.85-1.85-1.85-4.5t1.85-4.55q1.85-1.85 4.4-1.85 2.6 0 4.45 1.85 1.8 1.9 1.8 4.55" fill-rule="evenodd" transform="translate(12.35 33.05)"/><path d="M15.75 19.75q0 2.65-1.8 4.5-1.85 1.9-4.45 1.9-2.55 0-4.4-1.9-1.85-1.85-1.85-4.5T5.1 15.2q1.85-1.85 4.4-1.85 2.6 0 4.45 1.85 1.8 1.9 1.8 4.55zM17.3 35.65l4.65-3.4M3.35 20.35l2.15 9.2M5.5 29.55L3.75 37.8M3.75 37.8H2.5M11.85 22l1.75 8.8M13.6 30.8l-2.5 8.1M11.2 38.65l-2.3.4" fill="none" stroke="#000" stroke-linecap="round" stroke-linejoin="round" stroke-width="5"/></g><g id="shape1" fill-rule="evenodd"><path d="M7.25-27.25Q6.95-24 4.1-22.8 1.4-20.15-3-20.5q-2.55-.85-4.95-2.15-2.95-1.65-3.2-5.2-.2-3.4 2-6.05 2.2-2.7 5.6-3.15 3.4-.4 6.2 1.5 2.8 1.95 4.05 5.1.7 1.5.55 3.2" transform="translate(11.15 40.2)"/><path d="M2.35-40.15q1.7-.45 3.5 6.45.55 2.15.5 2.85l-1.25.35Q2.45-31.6.95-32.6q-2.05-1.35-2.85-2.95l.1-.05.1-.2.75.2.35.15L.45-37.8q1.1-2.15 1.9-2.35M-10.7-35.5l.45-4.45q1.3.7 2.4 1.6 1.8 1.4 2.15 2.55.35 1.45-1.15 3-1.25 1.4-2.95 2-.95-1.75-.9-4.7" transform="translate(11.15 40.2)"/></g></defs></svg>