<svg xmlns:xlink="http://www.w3.org/1999/xlink" height="70.15" width="49.75" xmlns="http://www.w3.org/2000/svg"><g transform="translate(32.75 36.25)"><use height="61.75" transform="translate(-19.15 -36.25)" width="34.65" xlink:href="#shape0"/><use height="19.75" transform="translate(-23.95 -10.45)" width="18.45" xlink:href="#shape1"/></g><defs><g id="shape0"><path d="M32.15 2.5q-2.7 0-3.3 3.1-.2.9-.2 5.9 0 3.2-2.25 4.4-3 1.6-3.75 3.1" fill="none" stroke="#000" stroke-linecap="round" stroke-linejoin="round" stroke-width="5"/><path d="M4.95-4.95Q2.7-2.6-.5-2.6t-5.45-2.35Q-8.2-7.3-8.2-10.6q0-3.3 2.25-5.65Q-3.7-18.6-.5-18.6t5.45 2.35Q7.2-13.9 7.2-10.6q0 3.3-2.25 5.65" fill-rule="evenodd" transform="translate(19.15 36.25)"/><path d="M24.1 31.3q-2.25 2.35-5.45 2.35T13.2 31.3q-2.25-2.35-2.25-5.65 0-3.3 2.25-5.65 2.25-2.35 5.45-2.35T24.1 20q2.25 2.35 2.25 5.65 0 3.3-2.25 5.65z" fill="none" stroke="#000" stroke-linecap="round" stroke-linejoin="round" stroke-width="4"/><path d="M-6.45.15q-1.85 1.9-4.45 1.9-2.55 0-4.4-1.9-1.85-1.85-1.85-4.5t1.85-4.55q1.85-1.85 4.4-1.85 2.6 0 4.45 1.85 1.8 1.9 1.8 4.55t-1.8 4.5" fill-rule="evenodd" transform="translate(19.15 36.25)"/><path d="M12.7 36.4q-1.85 1.9-4.45 1.9-2.55 0-4.4-1.9Q2 34.55 2 31.9t1.85-4.55q1.85-1.85 4.4-1.85 2.6 0 4.45 1.85 1.8 1.9 1.8 4.55t-1.8 4.5z" fill="none" stroke="#000" stroke-linecap="round" stroke-linejoin="round" stroke-width="4"/><path d="M27.35 36.85l-.65-5.7M3.4 44.5l-.25 7.85-.25 6.9M15.4 37.25q0 3.9-2.6 5.4-3.55 2.05-3.9 2.6-1.75 2.95-2.3 4.6Q5.55 52.9 6.15 56" fill="none" stroke="#000" stroke-linecap="round" stroke-linejoin="round" stroke-width="5"/></g><g id="shape1" fill-rule="evenodd"><path d="M7.25-27.25Q6.95-24 4.1-22.8 1.4-20.15-3-20.5q-2.55-.85-4.95-2.15-2.95-1.65-3.2-5.2-.2-3.4 2-6.05 2.2-2.7 5.6-3.15 3.4-.4 6.2 1.5 2.8 1.95 4.05 5.1.7 1.5.55 3.2" transform="translate(11.15 40.2)"/><path d="M2.35-40.15q1.7-.45 3.5 6.45.55 2.15.5 2.85l-1.25.35Q2.45-31.6.95-32.6q-2.05-1.35-2.85-2.95l.1-.05.1-.2.75.2.35.15L.45-37.8q1.1-2.15 1.9-2.35M-10.7-35.5l.45-4.45q1.3.7 2.4 1.6 1.8 1.4 2.15 2.55.35 1.45-1.15 3-1.25 1.4-2.95 2-.95-1.75-.9-4.7" transform="translate(11.15 40.2)"/></g></defs></svg>