<svg xmlns:xlink="http://www.w3.org/1999/xlink" height="70.15" width="49.75" xmlns="http://www.w3.org/2000/svg"><g transform="translate(32.75 36.25)"><use height="59.75" transform="translate(-27 -28.25)" width="36.75" xlink:href="#shape0"/><use height="19.75" transform="translate(-29.5 4.05)" width="18.45" xlink:href="#shape1"/></g><defs><g id="shape0"><path d="M21.5 15.25q-.35-2.55 2.95-3.1 3.65-.6 3.8-3.15.1-2.15 1.35-4 1.7-2.55 4.65-2.5" fill="none" stroke="#000" stroke-linecap="round" stroke-linejoin="round" stroke-width="5"/><path d="M-2.55.65Q-4.8 3-8 3T-13.45.65Q-15.7-1.7-15.7-5q0-3.3 2.25-5.65Q-11.2-13-8-13t5.45 2.35Q-.3-8.3-.3-5q0 3.3-2.25 5.65" fill-rule="evenodd" transform="translate(27 28.25)"/><path d="M24.45 28.9Q22.2 31.25 19 31.25t-5.45-2.35q-2.25-2.35-2.25-5.65 0-3.3 2.25-5.65 2.25-2.35 5.45-2.35t5.45 2.35q2.25 2.35 2.25 5.65 0 3.3-2.25 5.65z" fill="none" stroke="#000" stroke-linecap="round" stroke-linejoin="round" stroke-width="4"/><path d="M-10.6 8.3q-1.85 1.9-4.45 1.9-2.55 0-4.4-1.9-1.85-1.85-1.85-4.5t1.85-4.55q1.85-1.85 4.4-1.85 2.6 0 4.45 1.85 1.8 1.9 1.8 4.55t-1.8 4.5" fill-rule="evenodd" transform="translate(27 28.25)"/><path d="M16.4 36.55q-1.85 1.9-4.45 1.9-2.55 0-4.4-1.9-1.85-1.85-1.85-4.5t1.85-4.55q1.85-1.85 4.4-1.85 2.6 0 4.45 1.85 1.8 1.9 1.8 4.55t-1.8 4.5z" fill="none" stroke="#000" stroke-linecap="round" stroke-linejoin="round" stroke-width="4"/><path d="M25.75 25.25q.75-.15 2.85-1.55l2.65-1.7v7.5q-.25 0-.25.5h-.25M15.5 39.5q1.5-.85 2-.75V42L15 50q-.3.9-1.2 1.55l-1.55 1.2-1.25 1.8q-.65.7-1.7.45M2.5 57.25h1.75q3.1-5.9 2.5-15.75" fill="none" stroke="#000" stroke-linecap="round" stroke-linejoin="round" stroke-width="5"/></g><g id="shape1" fill-rule="evenodd"><path d="M7.25-27.25Q6.95-24 4.1-22.8 1.4-20.15-3-20.5q-2.55-.85-4.95-2.15-2.95-1.65-3.2-5.2-.2-3.4 2-6.05 2.2-2.7 5.6-3.15 3.4-.4 6.2 1.5 2.8 1.95 4.05 5.1.7 1.5.55 3.2" transform="translate(11.15 40.2)"/><path d="M2.35-40.15q1.7-.45 3.5 6.45.55 2.15.5 2.85l-1.25.35Q2.45-31.6.95-32.6q-2.05-1.35-2.85-2.95l.1-.05.1-.2.75.2.35.15L.45-37.8q1.1-2.15 1.9-2.35M-10.7-35.5l.45-4.45q1.3.7 2.4 1.6 1.8 1.4 2.15 2.55.35 1.45-1.15 3-1.25 1.4-2.95 2-.95-1.75-.9-4.7" transform="translate(11.15 40.2)"/></g></defs></svg>