<svg xmlns:xlink="http://www.w3.org/1999/xlink" height="70.15" width="49.75" xmlns="http://www.w3.org/2000/svg"><g transform="translate(32.75 36.25)"><use height="54.15" transform="translate(-28.6 -20.25)" width="33.1" xlink:href="#shape0"/><use height="19.75" transform="translate(-32.75 6.05)" width="18.45" xlink:href="#shape1"/></g><defs><g id="shape0"><path d="M19.6 18.25q1.8-1 3.25-3.25l2.5-4.75 3.1-3.55q2-2.05 2.15-4.2" fill="none" stroke="#000" stroke-linecap="round" stroke-linejoin="round" stroke-width="5"/><path d="M-7.55 11.45Q-9.8 13.8-13 13.8t-5.45-2.35Q-20.7 9.1-20.7 5.8q0-3.3 2.25-5.65Q-16.2-2.2-13-2.2T-7.55.15Q-5.3 2.5-5.3 5.8q0 3.3-2.25 5.65" fill-rule="evenodd" transform="translate(28.6 20.25)"/><path d="M21.05 31.7q-2.25 2.35-5.45 2.35t-5.45-2.35Q7.9 29.35 7.9 26.05q0-3.3 2.25-5.65 2.25-2.35 5.45-2.35t5.45 2.35q2.25 2.35 2.25 5.65 0 3.3-2.25 5.65z" fill="none" stroke="#000" stroke-linecap="round" stroke-linejoin="round" stroke-width="4"/><path d="M-15.6 4.75q1.8 1.9 1.8 4.55t-1.8 4.5q-1.85 1.9-4.45 1.9-2.55 0-4.4-1.9-1.85-1.85-1.85-4.5t1.85-4.55q1.85-1.85 4.4-1.85 2.6 0 4.45 1.85" fill-rule="evenodd" transform="translate(28.6 20.25)"/><path d="M13 25q1.8 1.9 1.8 4.55t-1.8 4.5q-1.85 1.9-4.45 1.9-2.55 0-4.4-1.9-1.85-1.85-1.85-4.5T4.15 25q1.85-1.85 4.4-1.85 2.6 0 4.45 1.85z" fill="none" stroke="#000" stroke-linecap="round" stroke-linejoin="round" stroke-width="4"/><path d="M23.6 26.75V27l-2.75 2.95Q19 32.25 18.6 33.5v2.75h1q.25-.75 1.75-2.25v.35l-1.8 3.95q-1.1 2.45-1.7 5.45M13.35 31.5v.25L13.6 39q0 3.2-1.6 7.4-1.75 4.65-3.65 4.6M2.5 51.65q1.15-.9 1.35-4.1v-5.3L5.4 37.1q.95-3.5.7-5.1" fill="none" stroke="#000" stroke-linecap="round" stroke-linejoin="round" stroke-width="5"/></g><g id="shape1" fill-rule="evenodd"><path d="M7.25-27.25Q6.95-24 4.1-22.8 1.4-20.15-3-20.5q-2.55-.85-4.95-2.15-2.95-1.65-3.2-5.2-.2-3.4 2-6.05 2.2-2.7 5.6-3.15 3.4-.4 6.2 1.5 2.8 1.95 4.05 5.1.7 1.5.55 3.2" transform="translate(11.15 40.2)"/><path d="M2.35-40.15q1.7-.45 3.5 6.45.55 2.15.5 2.85l-1.25.35Q2.45-31.6.95-32.6q-2.05-1.35-2.85-2.95l.1-.05.1-.2.75.2.35.15L.45-37.8q1.1-2.15 1.9-2.35M-10.7-35.5l.45-4.45q1.3.7 2.4 1.6 1.8 1.4 2.15 2.55.35 1.45-1.15 3-1.25 1.4-2.95 2-.95-1.75-.9-4.7" transform="translate(11.15 40.2)"/></g></defs></svg>